<?xml version="1.0" standalone="no"?>
<!DOCTYPE svg PUBLIC "-//W3C//DTD SVG 20010904//EN"
 "http://www.w3.org/TR/2001/REC-SVG-20010904/DTD/svg10.dtd">
<svg version="1.0" xmlns="http://www.w3.org/2000/svg"
 width="1024.000000pt" height="1024.000000pt" viewBox="0 0 1024.000000 1024.000000"
 preserveAspectRatio="xMidYMid meet">

<g transform="translate(0.000000,1024.000000) scale(0.100000,-0.100000)"
fill="#000000" stroke="none">
<path d="M3442 7521 l-512 -256 0 -577 0 -578 1025 0 1025 0 -2 578 -3 577
-510 256 -510 257 -513 -257z m38 -756 l0 -375 -185 0 -185 0 0 368 c0 203 3
372 7 375 3 4 87 7 185 7 l178 0 0 -375z m748 -2 l2 -373 -278 0 -279 0 -7
365 c-4 201 -4 370 -1 375 4 7 105 9 283 8 l277 -3 3 -372z m567 2 l0 -370
-186 -3 -186 -2 -6 106 c-4 59 -7 228 -7 376 l0 268 193 -2 192 -3 0 -370z"/>
<path d="M6553 7226 l-1383 -461 0 -187 0 -187 38 -10 c20 -6 129 -35 242 -65
113 -30 367 -98 565 -151 640 -170 846 -225 1050 -280 662 -178 876 -235 888
-235 4 0 7 459 7 1020 0 810 -3 1020 -12 1019 -7 -1 -635 -209 -1395 -463z"/>
<path d="M3232 5618 c-34 -161 -93 -444 -132 -628 -71 -338 -179 -852 -245
-1165 -20 -93 -56 -267 -81 -385 -24 -118 -67 -321 -95 -450 -27 -129 -58
-274 -68 -322 -10 -48 -16 -89 -13 -92 3 -4 613 -6 1356 -6 l1352 0 59 61 c63
63 182 148 275 194 57 29 184 75 206 75 6 0 26 -23 44 -50 18 -28 63 -79 101
-114 118 -109 268 -172 435 -183 l90 -6 103 117 c109 124 179 183 251 214 90
39 95 38 135 -23 57 -85 166 -180 259 -225 108 -52 193 -73 300 -74 l90 -1 47
80 c66 110 134 183 228 245 45 29 81 58 81 63 0 8 -78 143 -96 166 -2 2 -24
-9 -49 -23 -78 -46 -218 -170 -260 -230 -76 -109 -62 -100 -135 -82 -154 39
-253 117 -318 248 -22 46 -43 91 -46 100 -5 18 -10 18 -145 -3 -92 -15 -210
-63 -283 -116 -35 -25 -106 -90 -159 -145 l-96 -99 -64 11 c-96 17 -176 60
-242 129 -51 54 -114 160 -130 221 -7 26 -20 25 -147 -5 -219 -53 -408 -143
-539 -257 -18 -16 -35 -28 -36 -26 -4 4 -68 299 -140 643 -30 143 -88 422
-130 620 -42 198 -105 497 -140 665 -62 296 -92 435 -177 835 -22 105 -46 217
-52 250 l-13 60 -659 3 -659 2 -63 -292z m358 -628 l0 -280 -105 0 -105 0 0
280 0 280 105 0 105 0 0 -280z m938 -1497 l-3 -278 -105 0 -105 0 -3 278 -2
277 110 0 110 0 -2 -277z"/>
</g>
</svg>
